<svg xmlns="http://www.w3.org/2000/svg" viewBox="0 0 64 64" fill="none">
  <rect width="64" height="64" rx="14" fill="#0B1224"/>
  <g transform="translate(4 4) scale(0.583)">
    <defs>
      <linearGradient id="s" x1="18" y1="78" x2="86" y2="28" gradientUnits="userSpaceOnUse">
        <stop stop-color="#1D4ED8"/>
        <stop offset="0.55" stop-color="#3B82F6"/>
        <stop offset="1" stop-color="#93C5FD"/>
      </linearGradient>
    </defs>
    <path d="M24 70C16 54 20 34 36 24c12-8 28-9 40-2" stroke="#E8EEF8" stroke-width="6.5" stroke-linecap="round"/>
    <path d="M20 76c16 14 40 18 62 6 8-4 14-11 18-18" stroke="url(#s)" stroke-width="5" stroke-linecap="round"/>
    <path d="M28 84c14 8 34 10 52 2" stroke="#60A5FA" stroke-width="2.75" stroke-linecap="round"/>
    <circle cx="74" cy="28" r="4.25" fill="#F8FAFC"/>
    <g fill="#F8FAFC">
      <ellipse cx="46" cy="34" rx="7.2" ry="8"/>
      <path d="M34.5 72c1.5-14 6.5-22 11.5-25.5 3.2-2.2 8.2-2.4 11.8.4 5.2 4 10 12.2 11.7 25.1-6.2 2.8-14.4 4.2-22.2 3.4-4.4-.4-8.6-1.8-12.8-3.4Z"/>
      <path d="M35.2 52c-3.4 1.8-6.4 7-7.2 13.2 3.2 1.4 6.6 2.2 9.8 2.4.8-5.4 1.6-10.2 3.2-13.8-2-.6-3.8-1.2-5.8-1.8Z"/>
    </g>
    <rect x="42.5" y="50.5" width="13.5" height="9.2" rx="1.4" fill="#0B1224" stroke="#F8FAFC" stroke-width="1.3"/>
    <path d="M45 53.2h8.2M45 56h6" stroke="#60A5FA" stroke-width="1.05" stroke-linecap="round"/>
    <path d="M63 39.5 64.1 42 66.6 43.1 64.1 44.2 63 46.7 61.9 44.2 59.4 43.1 61.9 42 63 39.5Z" fill="#60A5FA"/>
    <path d="M70 44.2 70.7 45.8 72.3 46.5 70.7 47.2 70 48.8 69.3 47.2 67.7 46.5 69.3 45.8 70 44.2Z" fill="#F8FAFC"/>
  </g>
</svg>
